<?xml version="1.0" encoding="UTF-8" standalone="no"?> <svg xmlns:dc="http://purl.org/dc/elements/1.1/" xmlns:cc="http://creativecommons.org/ns#" xmlns:rdf="http://www.w3.org/1999/02/22-rdf-syntax-ns#" xmlns:svg="http://www.w3.org/2000/svg" xmlns="http://www.w3.org/2000/svg" viewBox="0 0 446.66666 153.33333" height="153.33333" width="446.66666" xml:space="preserve" id="svg2" version="1.1"><metadata id="metadata8"></metadata><defs id="defs6"><clipPath id="clipPath18"><path id="path16" d="M 0,115 H 335 V 0 H 0 Z"></path></clipPath></defs><g transform="matrix(1.3333333,0,0,-1.3333333,0,153.33333)" id="g10"><g id="g12"><g clip-path="url(#clipPath18)" id="g14"><g transform="translate(24.208,112.6987)" id="g20"><path id="path22" style="fill:#002594;fill-opacity:1;fill-rule:evenodd;stroke:none" d="M 0,0 C 2.52,0.432 5.688,0.792 9.576,0.936 V -7.848 C 8.64,-7.92 7.848,-8.064 7.344,-8.208 l -6.12,-15.12 c 0.792,-0.288 1.944,-0.36 3.456,-0.36 1.728,0 3.384,0.288 4.896,0.864 v -8.712 c -2.664,-0.72 -5.544,-1.08 -8.424,-1.08 -1.368,0 -2.592,0.072 -3.6,0.216 l -7.344,-18.36 h -10.656 z m 9.576,0.936 c 1.656,0.072 3.456,0.072 5.328,0.072 6.624,0 10.728,-1.368 12.816,-4.104 1.944,-2.592 2.304,-6.84 0.288,-11.88 -2.088,-5.04 -5.328,-9.36 -9.288,-12.24 -2.808,-2.016 -5.904,-3.456 -9.144,-4.32 v 8.712 c 3.456,1.296 6.192,3.888 7.704,7.56 1.872,4.68 0,7.488 -5.328,7.488 -0.864,0 -1.656,0 -2.376,-0.072 z"></path></g><g transform="translate(53.2241,75.1147)" id="g24"><path id="path26" style="fill:#002594;fill-opacity:1;fill-rule:evenodd;stroke:none" d="M 0,0 -8.712,-13.176 H -19.8 L 11.808,32.976 V 18.936 L 5.04,8.712 h 6.768 l 0,-8.712 z m 11.808,32.976 3.528,5.256 h 14.112 l -6.12,-51.408 H 11.808 L 13.536,0 h -1.728 v 8.712 h 3.672 l 1.44,10.944 c 0.432,3.024 1.08,6.84 1.656,9.936 H 18.36 c -1.872,-3.096 -4.176,-6.984 -6.12,-9.936 l -0.432,-0.72 z"></path></g><g transform="translate(112.9839,63.3784)" id="g28"><path id="path30" style="fill:#002594;fill-opacity:1;fill-rule:evenodd;stroke:none" d="m 0,0 c -2.376,-1.08 -7.344,-2.304 -13.104,-2.304 -16.344,0 -20.304,11.16 -14.328,25.776 7.056,17.568 22.464,27.36 36.864,27.36 5.544,0 9.216,-1.224 10.728,-2.304 l -5.976,-9.216 c -1.8,1.008 -4.392,1.872 -8.208,1.872 -8.496,0 -17.28,-5.544 -21.888,-16.992 -4.176,-10.296 -1.152,-16.776 8.352,-16.776 3.24,0 7.128,0.72 9.576,1.656 z"></path></g><g transform="translate(147.2559,113.3467)" id="g32"><path id="path34" style="fill:#002594;fill-opacity:1;fill-rule:evenodd;stroke:none" d="M 0,0 -20.664,-51.408 H -31.392 L -10.656,0 Z"></path></g><g transform="translate(153.0161,113.3467)" id="g36"><path id="path38" style="fill:#002594;fill-opacity:1;fill-rule:evenodd;stroke:none" d="M 0,0 H 28.944 L 25.056,-9.504 H 6.984 L 2.16,-21.24 h 16.992 l -3.816,-9.504 h -16.92 l -8.424,-20.664 h -10.656 z"></path></g><g transform="translate(197.2959,113.3467)" id="g40"><path id="path42" style="fill:#002594;fill-opacity:1;fill-rule:evenodd;stroke:none" d="M 0,0 -20.808,-51.408 H -31.536 L -10.8,0 Z"></path></g><g transform="translate(217.5996,63.3784)" id="g44"><path id="path46" style="fill:#002594;fill-opacity:1;fill-rule:evenodd;stroke:none" d="m 0,0 c -2.376,-1.08 -7.271,-2.304 -13.031,-2.304 -16.345,0 -20.305,11.16 -14.401,25.776 7.056,17.568 22.536,27.36 36.865,27.36 5.544,0 9.215,-1.224 10.727,-2.304 l -5.903,-9.216 c -1.801,1.008 -4.393,1.872 -8.208,1.872 -8.496,0 -17.353,-5.544 -21.96,-16.992 -4.177,-10.296 -1.152,-16.776 8.424,-16.776 3.24,0 7.055,0.72 9.576,1.656 z"></path></g><g transform="translate(2.104,2.1787)" id="g48"><path id="path50" style="fill:#002594;fill-opacity:1;fill-rule:evenodd;stroke:none" d="M 0,0 2.304,49.968 H 14.112 L 12.528,28.8 C 12.024,22.824 11.52,17.136 10.44,10.872 h 0.216 c 3.312,6.048 6.84,11.952 10.512,17.784 L 34.704,49.968 H 46.152 L 12.6,0 Z"></path></g><g transform="translate(44.0801,14.9229)" id="g52"><path id="path54" style="fill:#002594;fill-opacity:1;fill-rule:evenodd;stroke:none" d="M 0,0 -7.848,-12.744 H -19.08 L 10.656,33.552 V 18.432 L 4.536,8.496 h 6.12 l 0,-8.496 z m 10.656,33.552 2.376,3.672 H 27.144 L 24.408,-12.744 H 12.816 L 13.68,0 h -3.024 v 8.496 h 4.392 l 0.72,10.584 c 0.216,3.024 0.648,6.768 1.008,9.72 h -0.144 c -1.728,-2.952 -3.744,-6.768 -5.544,-9.72 l -0.432,-0.648 z"></path></g><g transform="translate(75.7603,13.7705)" id="g56"><path id="path58" style="fill:#002594;fill-opacity:1;fill-rule:evenodd;stroke:none" d="m 0,0 c 2.376,-1.584 6.264,-3.023 10.872,-3.023 4.896,0 8.28,2.015 9.432,5.327 C 21.384,5.4 19.728,7.2 14.76,9.36 7.92,12.24 4.392,16.849 6.912,24.12 c 2.952,8.568 12.024,15.12 23.256,15.12 5.4,0 8.928,-1.223 11.304,-2.52 l -5.616,-9.144 c -1.584,0.936 -4.464,2.376 -9.144,2.376 -4.608,0 -7.704,-2.232 -8.568,-4.824 -1.152,-3.24 1.008,-4.607 6.336,-7.128 7.272,-3.24 9.576,-7.848 7.2,-14.904 -2.952,-8.28 -11.664,-15.48 -24.696,-15.48 -5.472,0 -10.296,1.512 -12.456,3.096 z"></path></g><g transform="translate(141.4243,3.6191)" id="g60"><path id="path62" style="fill:#002594;fill-opacity:1;fill-rule:evenodd;stroke:none" d="m 0,0 c -2.304,-1.08 -7.2,-2.232 -12.96,-2.232 -16.488,0 -21.168,10.727 -16.2,25.055 5.976,17.065 20.88,26.569 35.28,26.569 5.544,0 9.36,-1.224 10.944,-2.233 l -5.328,-9 c -1.872,1.009 -4.608,1.872 -8.424,1.872 -8.496,0 -16.992,-5.471 -20.952,-16.632 -3.456,-10.007 0,-16.271 9.576,-16.271 3.24,0 7.128,0.72 9.504,1.584 z"></path></g><g transform="translate(172.6719,52.1465)" id="g64"><path id="path66" style="fill:#002594;fill-opacity:1;fill-rule:evenodd;stroke:none" d="m 0,0 -10.08,-28.8 c -3.024,-8.639 -1.44,-12.96 4.104,-12.96 5.617,0 10.224,4.104 13.248,12.96 L 17.353,0 H 28.152 L 18.288,-28.08 C 12.889,-43.416 2.88,-50.76 -9.504,-50.76 c -12.024,0 -16.704,6.985 -11.088,22.824 L -10.8,0 Z"></path></g><g transform="translate(206.584,52.1465)" id="g68"><path id="path70" style="fill:#002594;fill-opacity:1;fill-rule:evenodd;stroke:none" d="M 0,0 H 10.8 L -3.384,-40.536 h 18.936 l -3.312,-9.432 h -29.736 z"></path></g><g transform="translate(237.6885,14.9229)" id="g72"><path id="path74" style="fill:#002594;fill-opacity:1;fill-rule:evenodd;stroke:none" d="M 0,0 -7.92,-12.744 H -19.08 L 10.655,33.552 V 18.432 L 4.535,8.496 h 6.12 l 0,-8.496 z m 10.655,33.552 2.376,3.672 H 27.144 L 24.407,-12.744 H 12.815 L 13.68,0 h -3.025 v 8.496 h 4.393 l 0.72,10.584 c 0.215,3.024 0.648,6.768 1.007,9.72 h -0.143 c -1.729,-2.952 -3.744,-6.768 -5.544,-9.72 l -0.433,-0.648 z"></path></g><g transform="translate(282.1836,51.499)" id="g76"><path id="path78" style="fill:#002594;fill-opacity:1;fill-rule:evenodd;stroke:none" d="M 0,0 C 2.881,0.504 6.769,0.863 11.089,1.008 V -7.345 C 9.576,-7.488 8.568,-7.633 7.992,-7.704 L 3.169,-21.528 h 4.247 c 1.297,0 2.521,0.143 3.673,0.431 V -49.32 H 7.704 c -0.216,1.44 0,5.471 0.792,11.591 0.864,6.264 -0.575,7.92 -4.968,7.993 H 0.288 L -6.623,-49.32 h -10.584 z m 11.089,1.008 h 3.599 c 7.128,0 11.665,-1.08 14.113,-3.888 1.008,-1.224 1.655,-2.808 1.727,-4.681 v -0.864 c -0.072,-1.512 -0.431,-3.096 -1.08,-4.895 -2.231,-6.409 -7.992,-10.8 -12.672,-12.384 l -0.143,-0.216 c 2.88,-1.44 3.527,-4.753 3.168,-9.36 -0.504,-5.616 -1.368,-12.096 -1.08,-14.04 h -7.632 v 28.223 c 3.527,1.009 6.191,3.456 7.344,6.769 1.656,4.607 -0.504,6.912 -5.401,6.983 h -1.943 z"></path></g><g transform="translate(211.3359,92.9707)" id="g80"><path id="path82" style="fill:#002594;fill-opacity:1;fill-rule:evenodd;stroke:none" d="m 0,0 c 17.928,4.392 19.512,8.928 42.84,-4.392 17.137,-9.792 22.104,-11.016 37.44,-7.128 15.264,3.888 14.472,13.968 41.905,13.464 L 120.96,-1.728 C 98.928,-1.224 100.08,-9.36 76.68,-16.416 60.408,-21.24 40.248,-13.608 28.656,-6.408 21.312,-1.8 12.96,0.504 -0.72,-4.896 Z"></path></g><g transform="translate(206.7285,77.2026)" id="g84"><path id="path86" style="fill:#002594;fill-opacity:1;fill-rule:evenodd;stroke:none" d="M 0,0 C 21.527,6.912 29.304,12.024 47.663,-1.44 66.096,-14.904 72.144,-14.184 89.855,-7.056 109.8,1.008 107.208,4.968 122.903,4.968 L 121.896,0.792 C 108.647,1.728 89.136,-15.912 69.264,-16.128 49.464,-16.344 38.159,-0.72 25.703,1.224 13.176,3.24 -0.721,-3.6 -1.513,-4.176 -2.232,-4.608 0,0 0,0"></path></g></g></g></g></svg> 